<svg width="442" height="434" viewBox="0 0 442 434" fill="none" xmlns="http://www.w3.org/2000/svg">
<path d="M376.369 433.531C376.369 433.676 304.601 433.8 216.1 433.8C127.599 433.8 55.8001 433.676 55.8001 433.531C55.8001 433.386 127.558 433.262 216.1 433.262C304.642 433.262 376.369 433.397 376.369 433.531Z" fill="#263238"/>
<path d="M306.441 307.007C290.473 295.855 286.855 275.153 287.486 256.539C287.589 253.439 287.248 250.152 288.726 247.434C290.204 244.716 293.656 242.845 296.436 244.147C298.741 245.233 299.743 247.92 301.035 250.142C302.759 253.102 305.285 255.513 308.322 257.098C310.296 258.131 312.745 258.751 314.698 257.676C317.386 256.198 317.696 252.509 317.675 249.408C317.675 243.641 317.641 237.881 317.572 232.128C317.386 229.038 317.7 225.939 318.502 222.95C319.463 220.015 321.602 217.296 324.527 216.47C327.452 215.643 331.101 217.348 331.762 220.366C331.876 221.644 331.907 222.929 331.855 224.211C331.938 225.503 332.537 226.919 333.746 227.311C334.956 227.704 336.217 226.805 337.147 225.895C340.33 222.795 342.5 218.754 344.516 214.764C346.531 210.775 348.505 206.672 351.399 203.272C354.293 199.871 358.293 197.174 362.768 196.915C367.243 196.657 371.904 199.406 373.02 203.747C374.137 208.088 371.604 212.522 368.886 216.046C364.785 221.277 359.95 225.89 354.531 229.74C353.473 230.318 352.629 231.22 352.122 232.314C351.451 234.381 353.404 236.448 355.44 237.099C357.745 237.864 360.246 237.626 362.675 237.915C365.104 238.205 367.687 239.259 368.607 241.533C369.868 244.695 367.222 248.003 364.628 250.173C359.419 254.514 353.504 257.929 347.141 260.27C344.867 261.097 342.48 261.831 340.64 263.423C338.8 265.014 337.705 267.795 338.811 269.975C339.917 272.156 342.759 272.849 345.146 272.404C347.534 271.96 349.652 270.678 351.926 269.82C356.174 268.218 361.652 268.508 364.328 272.177C365.158 273.441 365.683 274.88 365.862 276.381C366.041 277.882 365.87 279.404 365.362 280.827C364.328 283.661 362.736 286.258 360.68 288.465C353.911 296.553 345.116 302.698 335.193 306.273C325.344 309.683 316.218 310.614 306.43 307.027" fill="#4CAF4F"/>
<path d="M368.473 199.468C368.473 199.468 368.38 199.571 368.173 199.758L367.253 200.574C366.447 201.297 365.259 202.352 363.76 203.747C359.511 207.692 355.566 211.952 351.957 216.49C349.652 219.353 347.265 222.598 344.722 226.123C342.18 229.647 339.555 233.45 336.95 237.492C334.174 241.753 331.631 246.162 329.333 250.7C328.134 253.067 327.08 255.537 325.995 258.059L322.791 265.759C318.568 275.457 314.89 285.384 311.774 295.493C309.264 303.764 307.534 312.252 306.606 320.845C306.005 326.645 305.908 332.486 306.317 338.302C306.482 340.369 306.637 341.95 306.782 343.025C306.844 343.542 306.885 343.955 306.926 344.255V344.679C306.882 344.544 306.851 344.406 306.833 344.265C306.782 343.965 306.72 343.562 306.637 343.046C306.451 342.012 306.255 340.379 306.069 338.312C305.57 332.485 305.605 326.625 306.172 320.804C307.042 312.174 308.734 303.646 311.226 295.338C314.316 285.201 317.984 275.249 322.212 265.531L325.499 257.862C326.584 255.351 327.649 252.86 328.858 250.483C331.171 245.932 333.735 241.512 336.537 237.244C339.183 233.109 341.849 229.368 344.361 225.875C346.872 222.381 349.301 219.115 351.595 216.263C355.241 211.737 359.239 207.506 363.553 203.613C365.083 202.238 366.302 201.204 367.129 200.512L368.09 199.737C368.208 199.634 368.336 199.544 368.473 199.468Z" fill="#263238"/>
<path d="M328.992 250.462C328.846 250.037 328.746 249.597 328.692 249.15C328.527 248.292 328.341 247.083 328.124 245.512C327.68 242.411 327.225 238.163 326.739 233.461C326.253 228.758 325.706 224.5 325.251 221.431C325.013 219.901 324.806 218.671 324.662 217.813C324.549 217.374 324.49 216.923 324.486 216.47C324.664 216.884 324.792 217.317 324.868 217.762C325.096 218.609 325.354 219.829 325.644 221.369C326.233 224.469 326.811 228.686 327.297 233.399C327.783 238.112 328.196 242.246 328.517 245.46C328.672 246.907 328.806 248.137 328.909 249.119C328.99 249.562 329.018 250.013 328.992 250.462Z" fill="#263238"/>
<path d="M368.762 243.042C368.259 243.151 367.747 243.213 367.233 243.228C366.199 243.321 364.732 243.445 362.913 243.651C359.274 244.044 354.272 244.768 348.784 245.801C343.296 246.835 338.366 248.003 334.821 248.902C333.054 249.356 331.628 249.77 330.687 250.049C330.185 250.227 329.665 250.352 329.137 250.421C329.614 250.181 330.113 249.984 330.625 249.832C331.597 249.491 333.002 249.015 334.759 248.509C338.284 247.475 343.213 246.246 348.722 245.191C353.389 244.299 358.097 243.644 362.83 243.228C364.659 243.073 366.137 243.011 367.171 242.99C367.702 242.954 368.235 242.971 368.762 243.042Z" fill="#263238"/>
<path d="M311.732 294.615C311.622 294.465 311.532 294.302 311.464 294.129L310.781 292.692C310.192 291.442 309.396 289.592 308.446 287.328C306.523 282.781 304.074 276.414 301.469 269.345C298.865 262.276 296.467 255.909 294.648 251.31C293.759 249.077 293.025 247.248 292.478 245.884L291.899 244.406C291.819 244.235 291.763 244.054 291.734 243.868C291.844 244.018 291.934 244.181 292.002 244.354L292.684 245.791C293.263 247.041 294.069 248.891 295.02 251.155C296.943 255.702 299.392 262.069 301.996 269.138C304.601 276.207 306.999 282.574 308.818 287.173C309.707 289.406 310.44 291.235 310.978 292.599C311.216 293.188 311.412 293.633 311.567 294.077C311.647 294.248 311.703 294.429 311.732 294.615Z" fill="#263238"/>
<path d="M364.525 277.592C364.359 277.687 364.182 277.76 363.998 277.809L362.468 278.326L356.815 280.156C352.04 281.706 345.446 283.918 338.211 286.357C330.977 288.796 324.352 290.966 319.546 292.413C317.148 293.147 315.195 293.705 313.841 294.077L312.28 294.48C312.099 294.538 311.911 294.576 311.722 294.594C311.887 294.499 312.065 294.426 312.249 294.377L313.779 293.86L319.432 292.031C324.207 290.48 330.801 288.269 338.036 285.83C345.27 283.39 351.885 281.22 356.691 279.773C359.099 279.039 361.042 278.481 362.406 278.109L363.967 277.706C364.148 277.648 364.335 277.61 364.525 277.592Z" fill="#263238"/>
<path d="M342.986 26.8899L337.663 28.7916L335.379 21.836C331.183 9.00994 317.809 2.199 305.521 6.52947C293.232 10.8599 286.69 24.9262 290.886 37.7523L293.17 44.7079L287.827 46.62C285.789 47.4103 284.135 48.9553 283.207 50.934C282.279 52.9127 282.15 55.1729 282.845 57.2446L297.656 102.503C297.963 103.528 298.473 104.482 299.157 105.306C299.84 106.131 300.682 106.809 301.632 107.302C302.583 107.795 303.623 108.091 304.69 108.174C305.758 108.257 306.831 108.124 307.846 107.784L363.005 88.054C365.07 87.2651 366.748 85.7064 367.687 83.7056C368.625 81.7048 368.752 79.418 368.039 77.326L353.218 32.0679C352.903 31.0452 352.384 30.0965 351.694 29.2784C351.004 28.4603 350.156 27.7897 349.201 27.3064C348.247 26.8231 347.204 26.5372 346.136 26.4657C345.068 26.3941 343.997 26.5384 342.986 26.8899ZM300.942 34.1246C299.811 30.7897 300.014 27.1462 301.509 23.9577C303.004 20.7691 305.675 18.2829 308.962 17.0198C310.586 16.4644 312.304 16.2417 314.015 16.3649C315.727 16.4882 317.395 16.9548 318.922 17.7371C320.449 18.5194 321.803 19.6012 322.903 20.918C324.002 22.2349 324.826 23.7598 325.323 25.4017L327.597 32.3573L303.216 41.0803L300.942 34.1246ZM331.948 74.2875L335.731 85.8423C335.8 86.074 335.778 86.3235 335.668 86.5391C335.558 86.7547 335.37 86.9197 335.142 86.9998L329.84 88.8912C329.629 88.9497 329.403 88.9243 329.21 88.8202C329.018 88.7162 328.873 88.5416 328.806 88.3331L324.992 76.8299C322.89 76.7154 320.872 75.9611 319.209 74.6681C317.547 73.3752 316.319 71.6052 315.691 69.5953C314.792 66.938 314.956 64.036 316.148 61.4969C317.341 58.9578 319.469 56.9785 322.088 55.9734C323.381 55.5316 324.75 55.3546 326.113 55.4531C327.476 55.5515 328.805 55.9233 330.021 56.5464C331.237 57.1694 332.316 58.0309 333.192 59.0795C334.068 60.1281 334.724 61.3424 335.121 62.65C335.786 64.6917 335.841 66.8831 335.279 68.9557C334.717 71.0282 333.563 72.8919 331.958 74.3185L331.948 74.2875Z" fill="#4CAF4F"/>
<path d="M337.426 28.6676C337.426 28.8123 327.556 32.5227 315.277 36.9358C302.999 41.349 292.984 44.894 292.932 44.7906C292.881 44.6873 302.803 40.9459 315.091 36.5224C327.38 32.0989 337.374 28.5333 337.426 28.6676Z" fill="#263238"/>
<path d="M349.146 30.5693C349.192 30.659 349.23 30.7523 349.26 30.8483C349.342 31.055 349.435 31.3237 349.559 31.6545C349.828 32.409 350.2 33.4528 350.665 34.7551L354.634 46.3099C356.288 51.2088 358.262 57.0172 360.453 63.4664C361.486 66.7014 362.706 70.0707 363.843 73.6156C364.451 75.4425 364.714 77.3666 364.618 79.2897C364.53 80.2898 364.246 81.2628 363.781 82.1526C363.284 83.0394 362.621 83.822 361.827 84.4573C360.231 85.6229 358.458 86.5265 356.577 87.1342L351.254 89.0462L341.177 92.6532L324.114 98.7303L312.59 102.782L309.49 103.815L308.663 104.084C308.574 104.123 308.48 104.148 308.384 104.156C308.384 104.156 308.466 104.156 308.642 104.032L309.448 103.712L312.549 102.544L324.011 98.3273L341.043 92.1261L351.099 88.4881L356.422 86.5657C358.25 85.9828 359.971 85.1067 361.517 83.9716C362.255 83.382 362.873 82.6556 363.336 81.8322C363.774 81.0093 364.038 80.1052 364.111 79.176C364.207 77.3231 363.954 75.4688 363.367 73.7087C362.251 70.1947 361.073 66.7944 360.008 63.5594C357.859 57.0999 355.874 51.2708 354.303 46.3719C352.732 41.473 351.409 37.5352 350.5 34.7654C350.066 33.4115 349.735 32.3573 349.466 31.5925L349.218 30.7656C349.187 30.703 349.163 30.6372 349.146 30.5693Z" fill="#263238"/>
<path d="M320.042 16.317C320.042 16.317 319.494 16.0483 318.481 15.6349C317.037 15.0801 315.511 14.7727 313.965 14.7254C311.673 14.6468 309.393 15.0774 307.288 15.9863C304.728 17.1179 302.54 18.9484 300.973 21.2676C299.396 23.5801 298.55 26.313 298.544 29.1121C298.566 31.4062 298.914 33.6856 299.578 35.8816C300.115 37.7627 300.674 39.2613 301.046 40.3051C301.265 40.8354 301.445 41.3812 301.583 41.9381C301.289 41.4424 301.044 40.9198 300.849 40.3775C300.425 39.344 299.816 37.8764 299.216 35.985C298.48 33.7659 298.08 31.4494 298.028 29.1121C298 26.2072 298.866 23.3641 300.508 20.9679C302.129 18.564 304.407 16.6769 307.071 15.5315C309.242 14.6177 311.593 14.2146 313.944 14.3533C315.523 14.4338 317.075 14.8015 318.523 15.4385C318.91 15.617 319.283 15.8243 319.639 16.0586C319.786 16.1232 319.922 16.2104 320.042 16.317Z" fill="#263238"/>
<path d="M320.517 56.7589C320.682 56.6589 320.855 56.5725 321.034 56.5005C321.551 56.2671 322.087 56.0769 322.636 55.9321C323.507 55.675 324.406 55.5223 325.313 55.4773C326.547 55.411 327.781 55.5974 328.94 56.0251C331.586 56.9553 334.015 59.6528 335.214 63.2598C335.789 65.1955 335.789 67.2565 335.214 69.1922C334.576 71.2931 333.434 73.2058 331.886 74.7629L331.948 74.4839C333.323 78.2562 334.821 82.349 336.372 86.6175L336.465 86.8759L336.206 86.9689L333.839 87.7543L328.672 89.4803L328.413 89.563L328.331 89.3046C326.915 85.0258 325.364 81.0364 324.197 77.1194L324.424 77.2951C322.403 77.1272 320.477 76.3688 318.884 75.1143C317.443 74.0045 316.262 72.5936 315.422 70.9802C314.664 69.5494 314.287 67.9479 314.326 66.3293C314.374 64.6751 314.787 63.052 315.536 61.5761C316.285 60.1002 317.35 58.8081 318.657 57.7924C319.195 57.3558 319.798 57.007 320.445 56.7589C319.861 57.1053 319.295 57.4813 318.75 57.8854C317.315 59.0997 316.215 60.6619 315.556 62.4226C314.991 63.7503 314.726 65.1868 314.782 66.6288C314.837 68.0708 315.211 69.4827 315.877 70.7632C316.702 72.3153 317.856 73.6695 319.256 74.7319C320.776 75.9244 322.612 76.6433 324.538 76.799H324.713L324.765 76.954C325.902 80.7987 327.463 84.8191 328.899 89.1186L328.558 88.9532L333.726 87.2272L336.082 86.4314L335.917 86.7828C334.377 82.5144 332.889 78.4113 331.524 74.6389V74.4839L331.648 74.3598C333.151 72.8673 334.271 71.0344 334.914 69.0165C335.462 67.1649 335.462 65.1941 334.914 63.3424C333.788 59.8698 331.462 57.2343 328.94 56.3041C327.824 55.8737 326.632 55.6733 325.437 55.715C324.544 55.7355 323.656 55.8568 322.791 56.0768C321.251 56.4592 320.528 56.8106 320.517 56.7589Z" fill="#263238"/>
<path d="M288.571 355.179L185.332 354.704C179.37 354.671 173.665 352.273 169.469 348.037C165.274 343.801 162.931 338.073 162.956 332.111L164.052 73.3056C164.064 70.3518 164.658 67.4294 165.8 64.7054C166.943 61.9814 168.61 59.5093 170.709 57.4303C172.807 55.3512 175.294 53.7061 178.029 52.5889C180.763 51.4718 183.691 50.9045 186.645 50.9194L289.873 51.3948C295.835 51.4249 301.541 53.8201 305.739 58.0542C309.936 62.2884 312.281 68.0154 312.259 73.9774L311.164 332.772C311.152 335.727 310.558 338.651 309.416 341.376C308.274 344.101 306.606 346.574 304.508 348.655C302.41 350.736 299.923 352.383 297.188 353.502C294.454 354.622 291.526 355.191 288.571 355.179Z" fill="#455A64"/>
<path d="M289.718 60.2935H269.709C269.056 60.3056 268.412 60.4462 267.814 60.7073C267.215 60.9684 266.674 61.3448 266.221 61.8151C265.768 62.2854 265.412 62.8403 265.173 63.4482C264.935 64.056 264.819 64.7049 264.831 65.3578V68.9855C264.843 69.6378 264.727 70.2862 264.488 70.8935C264.249 71.5008 263.893 72.055 263.44 72.5245C262.987 72.9939 262.446 73.3694 261.847 73.6293C261.249 73.8893 260.605 74.0287 259.953 74.0394L220.947 73.8637C219.628 73.8285 218.376 73.2711 217.467 72.3138C216.558 71.3565 216.067 70.0777 216.1 68.7581V65.1304C216.133 63.8126 215.643 62.5353 214.736 61.5783C213.83 60.6213 212.581 60.0627 211.263 60.0248H204.225L186.707 59.9421C182.54 59.9173 178.533 61.5446 175.563 64.4677C172.594 67.3907 170.904 71.3714 170.863 75.538L169.829 328.153C169.82 330.22 170.217 332.268 171 334.182C171.782 336.095 172.933 337.836 174.388 339.304C175.843 340.772 177.573 341.94 179.479 342.74C181.385 343.54 183.43 343.956 185.497 343.966L288.519 344.441C290.588 344.45 292.638 344.052 294.552 343.27C296.467 342.487 298.209 341.335 299.678 339.879C301.147 338.423 302.316 336.692 303.116 334.785C303.916 332.877 304.333 330.831 304.343 328.762L305.376 76.1478C305.401 71.9694 303.765 67.9522 300.829 64.9792C297.893 62.0062 293.897 60.3208 289.718 60.2935Z" fill="white"/>
<path d="M275.859 310.738L199.254 310.407C198.458 310.407 197.817 309.539 197.827 308.485L197.91 288.444C197.91 287.411 198.561 286.522 199.357 286.522L275.962 286.873C276.403 286.95 276.797 287.193 277.063 287.553C277.329 287.914 277.445 288.362 277.388 288.806L277.316 308.826C277.316 309.89 276.654 310.748 275.859 310.738Z" fill="#4CAF4F"/>
<path d="M222.544 300.525C222.122 300.525 221.715 300.457 221.325 300.322C220.94 300.181 220.642 300.002 220.43 299.785L220.666 299.322C220.867 299.517 221.135 299.682 221.471 299.818C221.813 299.948 222.17 300.013 222.544 300.013C222.902 300.013 223.192 299.969 223.414 299.883C223.642 299.791 223.807 299.669 223.91 299.517C224.019 299.365 224.073 299.197 224.073 299.013C224.073 298.79 224.008 298.612 223.878 298.476C223.753 298.341 223.588 298.235 223.382 298.159C223.176 298.078 222.948 298.007 222.699 297.947C222.45 297.888 222.2 297.826 221.951 297.76C221.701 297.69 221.471 297.598 221.26 297.484C221.054 297.37 220.886 297.221 220.756 297.037C220.631 296.847 220.569 296.6 220.569 296.297C220.569 296.015 220.642 295.757 220.788 295.524C220.94 295.286 221.17 295.096 221.479 294.955C221.788 294.809 222.184 294.736 222.666 294.736C222.986 294.736 223.303 294.782 223.618 294.874C223.932 294.961 224.203 295.083 224.431 295.24L224.228 295.72C223.984 295.557 223.723 295.438 223.447 295.362C223.176 295.286 222.913 295.248 222.658 295.248C222.317 295.248 222.035 295.294 221.813 295.386C221.59 295.478 221.425 295.603 221.317 295.76C221.214 295.912 221.162 296.085 221.162 296.281C221.162 296.503 221.224 296.682 221.349 296.817C221.479 296.953 221.647 297.058 221.853 297.134C222.065 297.21 222.295 297.278 222.544 297.338C222.794 297.397 223.04 297.462 223.284 297.533C223.534 297.603 223.761 297.695 223.967 297.809C224.179 297.918 224.347 298.064 224.472 298.248C224.602 298.433 224.667 298.674 224.667 298.972C224.667 299.248 224.591 299.506 224.439 299.745C224.287 299.978 224.054 300.167 223.74 300.314C223.431 300.455 223.032 300.525 222.544 300.525ZM225.978 300.476V294.784H226.579V300.476H225.978ZM228.431 300.476V294.784H228.927L232.855 299.728H232.595V294.784H233.188V300.476H232.692L228.773 295.532H229.033V300.476H228.431ZM237.542 300.525C237.109 300.525 236.708 300.455 236.339 300.314C235.976 300.167 235.659 299.964 235.388 299.704C235.122 299.444 234.913 299.137 234.761 298.785C234.615 298.433 234.542 298.048 234.542 297.63C234.542 297.213 234.615 296.828 234.761 296.476C234.913 296.123 235.125 295.817 235.396 295.557C235.667 295.297 235.984 295.096 236.347 294.955C236.716 294.809 237.117 294.736 237.55 294.736C237.984 294.736 238.38 294.803 238.738 294.939C239.101 295.074 239.41 295.28 239.665 295.557L239.291 295.939C239.052 295.701 238.789 295.53 238.502 295.427C238.215 295.324 237.906 295.272 237.575 295.272C237.223 295.272 236.897 295.332 236.599 295.451C236.306 295.565 236.049 295.73 235.827 295.947C235.61 296.159 235.439 296.408 235.314 296.695C235.195 296.977 235.135 297.289 235.135 297.63C235.135 297.966 235.195 298.278 235.314 298.565C235.439 298.853 235.61 299.105 235.827 299.322C236.049 299.533 236.306 299.698 236.599 299.818C236.897 299.932 237.22 299.988 237.567 299.988C237.892 299.988 238.198 299.94 238.486 299.842C238.778 299.745 239.047 299.579 239.291 299.346L239.632 299.801C239.361 300.04 239.044 300.222 238.681 300.346C238.318 300.465 237.938 300.525 237.542 300.525ZM239.055 299.728V297.63H239.632V299.801L239.055 299.728ZM245.756 300.525C245.03 300.525 244.458 300.316 244.041 299.899C243.623 299.482 243.414 298.864 243.414 298.045V294.784H244.016V298.021C244.016 298.693 244.168 299.189 244.471 299.509C244.775 299.829 245.203 299.988 245.756 299.988C246.315 299.988 246.746 299.829 247.049 299.509C247.353 299.189 247.504 298.693 247.504 298.021V294.784H248.09V298.045C248.09 298.864 247.881 299.482 247.464 299.899C247.052 300.316 246.483 300.525 245.756 300.525ZM249.903 300.476V294.784H252.033C252.516 294.784 252.931 294.863 253.278 295.02C253.625 295.172 253.89 295.394 254.074 295.687C254.264 295.974 254.359 296.324 254.359 296.736C254.359 297.137 254.264 297.484 254.074 297.777C253.89 298.064 253.625 298.286 253.278 298.443C252.931 298.601 252.516 298.679 252.033 298.679H250.236L250.505 298.395V300.476H249.903ZM250.505 298.443L250.236 298.151H252.017C252.586 298.151 253.017 298.029 253.31 297.785C253.608 297.536 253.757 297.186 253.757 296.736C253.757 296.281 253.608 295.928 253.31 295.679C253.017 295.429 252.586 295.305 252.017 295.305H250.236L250.505 295.02V298.443Z" fill="#E8E8E3"/>
<path d="M214.533 134.553L187.951 134.432L187.929 139.31L214.511 139.431L214.533 134.553Z" fill="#4CAF4F"/>
<path opacity="0.1" d="M214.533 134.553L187.951 134.432L187.929 139.31L214.511 139.431L214.533 134.553Z" fill="black"/>
<path d="M292.457 164.504C292.666 164.483 292.871 164.434 293.067 164.359C293.353 164.247 293.602 164.057 293.784 163.81C293.967 163.564 294.077 163.27 294.1 162.964C294.1 161.321 294.1 158.923 294.1 155.843C294.1 154.303 294.1 152.577 294.1 150.675C294.1 150.21 294.1 149.725 294.1 149.239C294.168 148.767 294.065 148.287 293.811 147.885C293.669 147.692 293.484 147.534 293.27 147.425C293.057 147.316 292.821 147.257 292.581 147.254H290.969H276.034L189.59 146.934C189.369 146.93 189.15 146.98 188.952 147.079C188.754 147.178 188.583 147.323 188.453 147.502C188.204 147.907 188.108 148.387 188.184 148.856C188.184 149.89 188.184 150.923 188.184 151.957C188.184 154.024 188.184 156.091 188.184 158.158C188.184 159.192 188.184 160.225 188.184 161.259C188.142 161.74 188.142 162.224 188.184 162.706C188.239 162.912 188.34 163.103 188.479 163.264C188.619 163.426 188.794 163.553 188.991 163.636C189.194 163.717 189.412 163.756 189.631 163.749H194.892L217.847 163.874L256.707 164.111L282.907 164.318L290.028 164.401H291.878C292.302 164.401 292.509 164.401 292.509 164.401H291.878H290.028H282.907H256.707L217.847 164.277L194.892 164.184H189.631C189.342 164.195 189.053 164.146 188.784 164.039C188.512 163.923 188.27 163.746 188.076 163.522C187.883 163.298 187.743 163.033 187.668 162.747C187.608 162.476 187.587 162.197 187.606 161.92V161.155C187.606 160.122 187.606 159.088 187.606 158.055C187.606 155.988 187.606 153.921 187.606 151.854C187.606 150.82 187.606 149.787 187.606 148.753C187.586 148.478 187.586 148.201 187.606 147.926C187.644 147.622 187.762 147.334 187.947 147.089C188.125 146.84 188.361 146.637 188.635 146.498C188.908 146.36 189.211 146.289 189.518 146.293L275.962 146.769L290.896 146.872H292.509C292.793 146.872 293.073 146.941 293.324 147.072C293.576 147.204 293.793 147.394 293.956 147.626C294.247 148.076 294.365 148.616 294.286 149.146C294.286 149.632 294.286 150.117 294.286 150.582C294.286 152.463 294.286 154.189 294.286 155.75C294.286 158.851 294.214 161.228 294.193 162.881C294.168 163.199 294.052 163.503 293.86 163.758C293.668 164.012 293.407 164.207 293.108 164.318C292.913 164.439 292.687 164.504 292.457 164.504Z" fill="#E0E0E0"/>
<path d="M244.553 152.122H195.936V156.68H244.553V152.122Z" fill="#4CAF4F"/>
<path opacity="0.2" d="M244.553 152.122H195.936V156.68H244.553V152.122Z" fill="white"/>
<path d="M214.352 179.055L187.77 178.934L187.748 183.813L214.33 183.933L214.352 179.055Z" fill="#4CAF4F"/>
<path opacity="0.1" d="M214.352 179.055L187.77 178.934L187.748 183.813L214.33 183.933L214.352 179.055Z" fill="black"/>
<path d="M291.785 209.008C291.994 208.982 292.201 208.944 292.405 208.894C292.694 208.802 292.96 208.649 293.184 208.446C293.409 208.243 293.587 207.994 293.708 207.716C293.87 207.298 293.934 206.849 293.894 206.403C293.894 205.907 293.894 205.37 293.894 204.77C293.894 203.571 293.894 202.207 293.894 200.636V194.073C293.943 193.598 293.838 193.12 293.594 192.709C293.339 192.288 292.938 191.975 292.467 191.83C291.953 191.739 291.428 191.711 290.907 191.748H276.034L189.89 191.427C189.426 191.428 188.979 191.598 188.631 191.904C188.283 192.21 188.059 192.632 187.998 193.091C187.998 194.073 187.998 195.158 187.998 196.192C187.998 198.259 187.998 200.326 187.998 202.393C187.998 203.427 187.998 204.46 187.998 205.494C187.96 205.977 187.981 206.463 188.06 206.941C188.19 207.36 188.455 207.723 188.815 207.974C189.197 208.216 189.645 208.332 190.097 208.305H191.533H194.52L217.392 208.419L256.118 208.656L282.225 208.863L289.325 208.946H282.225H256.118L217.371 208.904L194.499 208.822H190.004C189.445 208.855 188.89 208.706 188.422 208.398C187.952 208.072 187.609 207.594 187.451 207.044C187.358 206.519 187.33 205.984 187.368 205.452C187.368 204.419 187.368 203.385 187.368 202.352C187.368 200.285 187.368 198.218 187.368 196.151C187.368 195.117 187.368 194.084 187.368 193.05C187.443 192.459 187.732 191.916 188.179 191.522C188.626 191.128 189.201 190.911 189.797 190.911L275.941 191.386L290.814 191.5C291.368 191.466 291.923 191.504 292.467 191.613C293.004 191.789 293.457 192.157 293.739 192.647C294.006 193.102 294.122 193.631 294.069 194.156C294.069 194.642 294.069 195.117 294.069 195.592C294.069 197.463 294.069 199.179 294.069 200.76C294.069 202.341 294.069 203.675 294.069 204.894C294.069 205.483 294.069 206.031 294.069 206.537C294.107 207 294.032 207.464 293.852 207.891C293.718 208.177 293.524 208.429 293.283 208.633C293.042 208.836 292.761 208.985 292.457 209.07C292.231 209.088 292.004 209.067 291.785 209.008Z" fill="#E0E0E0"/>
<path d="M214.152 225.49L187.57 225.369L187.548 230.247L214.13 230.368L214.152 225.49Z" fill="#4CAF4F"/>
<path opacity="0.1" d="M214.152 225.49L187.57 225.369L187.548 230.247L214.13 230.368L214.152 225.49Z" fill="black"/>
<path d="M291.578 255.423C291.787 255.399 291.995 255.361 292.199 255.31C292.486 255.218 292.751 255.067 292.975 254.866C293.2 254.664 293.379 254.418 293.501 254.142C293.663 253.724 293.727 253.275 293.687 252.829C293.687 252.323 293.687 251.796 293.687 251.186C293.687 249.997 293.687 248.623 293.687 247.052V240.489C293.736 240.014 293.631 239.535 293.387 239.125C293.126 238.711 292.727 238.403 292.261 238.256C291.746 238.161 291.222 238.13 290.7 238.163H275.828L189.683 237.843C189.22 237.844 188.773 238.013 188.425 238.32C188.077 238.626 187.852 239.048 187.792 239.507C187.792 240.541 187.792 241.574 187.792 242.608C187.792 244.675 187.792 246.742 187.792 248.809C187.792 249.842 187.792 250.876 187.792 251.909C187.753 252.389 187.774 252.871 187.854 253.346C187.978 253.768 188.244 254.133 188.608 254.379C188.988 254.627 189.438 254.743 189.89 254.71H194.386L217.258 254.834L255.984 255.072L282.091 255.279L289.191 255.361H282.091H255.984L217.258 255.248L194.386 255.155H189.89C189.33 255.192 188.774 255.043 188.309 254.731C187.838 254.405 187.495 253.927 187.337 253.377C187.244 252.852 187.217 252.317 187.254 251.785C187.254 250.752 187.254 249.718 187.254 248.685C187.254 246.618 187.254 244.551 187.254 242.484C187.254 241.45 187.254 240.417 187.254 239.331C187.327 238.741 187.614 238.198 188.059 237.804C188.504 237.41 189.078 237.192 189.673 237.192L275.817 237.667L290.69 237.781C291.243 237.747 291.799 237.785 292.343 237.895C292.88 238.07 293.333 238.438 293.615 238.928C293.882 239.383 293.998 239.912 293.945 240.437C293.945 240.923 293.945 241.409 293.945 241.874C293.945 243.744 293.945 245.46 293.945 247.041C293.945 248.623 293.945 249.956 293.945 251.176C293.945 251.765 293.945 252.312 293.945 252.819C293.985 253.281 293.91 253.746 293.728 254.173C293.594 254.458 293.4 254.711 293.159 254.914C292.918 255.117 292.637 255.266 292.333 255.351C292.091 255.434 291.832 255.459 291.578 255.423Z" fill="#E0E0E0"/>
<path d="M243.515 197.915L194.899 197.694L194.878 202.252L243.495 202.472L243.515 197.915Z" fill="#4CAF4F"/>
<path opacity="0.2" d="M243.515 197.915L194.899 197.694L194.878 202.252L243.495 202.472L243.515 197.915Z" fill="white"/>
<path d="M199.295 246.99C199.264 247.405 199.113 247.803 198.858 248.133C198.604 248.463 198.258 248.712 197.864 248.847C197.47 248.983 197.044 249 196.641 248.896C196.237 248.792 195.873 248.572 195.593 248.263C195.313 247.953 195.13 247.569 195.067 247.157C195.004 246.745 195.063 246.323 195.237 245.945C195.411 245.566 195.693 245.247 196.046 245.026C196.4 244.806 196.811 244.695 197.228 244.706C197.804 244.738 198.344 244.995 198.731 245.423C199.117 245.851 199.32 246.414 199.295 246.99Z" fill="#4CAF4F"/>
<path d="M205.878 247.021C205.899 247.312 205.859 247.605 205.761 247.88C205.664 248.155 205.511 248.407 205.312 248.621C205.112 248.835 204.871 249.005 204.603 249.121C204.336 249.238 204.047 249.298 203.755 249.298C203.462 249.298 203.174 249.238 202.906 249.121C202.638 249.005 202.397 248.835 202.198 248.621C201.998 248.407 201.845 248.155 201.748 247.88C201.65 247.605 201.61 247.312 201.631 247.021C201.61 246.729 201.65 246.437 201.748 246.162C201.845 245.886 201.998 245.634 202.198 245.42C202.397 245.207 202.638 245.036 202.906 244.92C203.174 244.804 203.462 244.743 203.755 244.743C204.047 244.743 204.336 244.804 204.603 244.92C204.871 245.036 205.112 245.207 205.312 245.42C205.511 245.634 205.664 245.886 205.761 246.162C205.859 246.437 205.899 246.729 205.878 247.021Z" fill="#4CAF4F"/>
<path d="M212.472 247.052C212.442 247.467 212.29 247.865 212.036 248.195C211.781 248.525 211.435 248.774 211.041 248.909C210.647 249.045 210.222 249.062 209.818 248.958C209.414 248.854 209.05 248.634 208.77 248.325C208.491 248.015 208.308 247.631 208.245 247.219C208.181 246.807 208.24 246.385 208.415 246.007C208.589 245.628 208.87 245.309 209.224 245.088C209.578 244.868 209.989 244.757 210.405 244.768C210.98 244.802 211.519 245.061 211.905 245.488C212.291 245.915 212.495 246.476 212.472 247.052Z" fill="#4CAF4F"/>
<path d="M219.056 247.083C219.025 247.498 218.874 247.896 218.619 248.226C218.365 248.557 218.019 248.805 217.625 248.94C217.231 249.076 216.805 249.093 216.402 248.989C215.998 248.885 215.634 248.665 215.354 248.356C215.074 248.046 214.891 247.662 214.828 247.25C214.765 246.838 214.824 246.416 214.998 246.038C215.172 245.659 215.454 245.34 215.808 245.119C216.161 244.899 216.572 244.788 216.989 244.799C217.564 244.833 218.102 245.092 218.488 245.519C218.875 245.946 219.079 246.507 219.056 247.083Z" fill="#4CAF4F"/>
<path d="M225.64 247.103C225.611 247.52 225.461 247.919 225.207 248.25C224.954 248.582 224.609 248.832 224.215 248.969C223.821 249.106 223.395 249.124 222.99 249.021C222.586 248.918 222.221 248.699 221.94 248.39C221.659 248.081 221.476 247.697 221.412 247.284C221.348 246.872 221.406 246.45 221.58 246.071C221.754 245.691 222.036 245.371 222.39 245.151C222.744 244.93 223.155 244.818 223.572 244.83C224.145 244.864 224.682 245.121 225.068 245.546C225.454 245.971 225.659 246.53 225.64 247.103Z" fill="#4CAF4F"/>
<path d="M232.233 247.134C232.205 247.549 232.057 247.946 231.806 248.276C231.555 248.607 231.213 248.857 230.821 248.996C230.43 249.135 230.007 249.156 229.604 249.058C229.2 248.959 228.835 248.745 228.552 248.441C228.269 248.137 228.081 247.758 228.011 247.348C227.941 246.939 227.992 246.518 228.158 246.138C228.324 245.757 228.598 245.434 228.946 245.207C229.293 244.98 229.7 244.86 230.115 244.861C230.697 244.882 231.247 245.134 231.644 245.56C232.041 245.986 232.253 246.552 232.233 247.134Z" fill="#4CAF4F"/>
<path d="M238.817 247.165C238.837 247.457 238.797 247.749 238.7 248.025C238.602 248.3 238.449 248.552 238.25 248.766C238.051 248.979 237.81 249.15 237.542 249.266C237.274 249.383 236.985 249.443 236.693 249.443C236.401 249.443 236.112 249.383 235.844 249.266C235.576 249.15 235.335 248.979 235.136 248.766C234.937 248.552 234.784 248.3 234.686 248.025C234.589 247.749 234.549 247.457 234.569 247.165C234.549 246.874 234.589 246.582 234.686 246.306C234.784 246.031 234.937 245.779 235.136 245.565C235.335 245.351 235.576 245.181 235.844 245.065C236.112 244.948 236.401 244.888 236.693 244.888C236.985 244.888 237.274 244.948 237.542 245.065C237.81 245.181 238.051 245.351 238.25 245.565C238.449 245.779 238.602 246.031 238.7 246.306C238.797 246.582 238.837 246.874 238.817 247.165Z" fill="#4CAF4F"/>
<path d="M245.401 247.196C245.372 247.611 245.224 248.008 244.973 248.338C244.722 248.669 244.38 248.919 243.989 249.058C243.597 249.197 243.174 249.218 242.771 249.12C242.367 249.021 242.002 248.807 241.719 248.503C241.436 248.199 241.248 247.82 241.178 247.41C241.108 247.001 241.159 246.58 241.325 246.2C241.491 245.819 241.765 245.496 242.113 245.269C242.46 245.042 242.867 244.922 243.282 244.923C243.864 244.944 244.414 245.196 244.811 245.622C245.208 246.048 245.42 246.614 245.401 247.196Z" fill="#4CAF4F"/>
<path d="M251.984 247.227C251.956 247.644 251.805 248.043 251.552 248.374C251.299 248.706 250.954 248.956 250.559 249.093C250.165 249.23 249.74 249.248 249.335 249.145C248.931 249.042 248.565 248.823 248.285 248.514C248.004 248.205 247.82 247.821 247.756 247.408C247.692 246.996 247.751 246.574 247.925 246.195C248.099 245.815 248.38 245.495 248.734 245.275C249.089 245.054 249.5 244.943 249.917 244.954C250.49 244.988 251.027 245.246 251.413 245.67C251.799 246.095 252.004 246.654 251.984 247.227Z" fill="#4CAF4F"/>
<g opacity="0.2">
<path d="M199.295 246.99C199.264 247.405 199.113 247.803 198.858 248.133C198.604 248.463 198.258 248.712 197.864 248.847C197.47 248.983 197.044 249 196.641 248.896C196.237 248.792 195.873 248.572 195.593 248.263C195.313 247.953 195.13 247.569 195.067 247.157C195.004 246.745 195.063 246.323 195.237 245.945C195.411 245.566 195.693 245.247 196.046 245.026C196.4 244.806 196.811 244.695 197.228 244.706C197.804 244.738 198.344 244.995 198.731 245.423C199.117 245.851 199.32 246.414 199.295 246.99Z" fill="white"/>
<path d="M205.878 247.021C205.899 247.312 205.859 247.605 205.761 247.88C205.664 248.155 205.511 248.407 205.312 248.621C205.112 248.835 204.871 249.005 204.603 249.121C204.336 249.238 204.047 249.298 203.755 249.298C203.462 249.298 203.174 249.238 202.906 249.121C202.638 249.005 202.397 248.835 202.198 248.621C201.998 248.407 201.845 248.155 201.748 247.88C201.65 247.605 201.61 247.312 201.631 247.021C201.61 246.729 201.65 246.437 201.748 246.162C201.845 245.886 201.998 245.634 202.198 245.42C202.397 245.207 202.638 245.036 202.906 244.92C203.174 244.804 203.462 244.743 203.755 244.743C204.047 244.743 204.336 244.804 204.603 244.92C204.871 245.036 205.112 245.207 205.312 245.42C205.511 245.634 205.664 245.886 205.761 246.162C205.859 246.437 205.899 246.729 205.878 247.021Z" fill="white"/>
<path d="M212.472 247.052C212.442 247.467 212.29 247.865 212.036 248.195C211.781 248.525 211.435 248.774 211.041 248.909C210.647 249.045 210.222 249.062 209.818 248.958C209.414 248.854 209.05 248.634 208.77 248.325C208.491 248.015 208.308 247.631 208.245 247.219C208.181 246.807 208.24 246.385 208.415 246.007C208.589 245.628 208.87 245.309 209.224 245.088C209.578 244.868 209.989 244.757 210.405 244.768C210.98 244.802 211.518 245.061 211.905 245.488C212.291 245.915 212.495 246.476 212.472 247.052Z" fill="white"/>
<path d="M219.056 247.083C219.025 247.498 218.874 247.896 218.619 248.226C218.365 248.557 218.019 248.805 217.625 248.94C217.231 249.076 216.805 249.093 216.402 248.989C215.998 248.885 215.634 248.665 215.354 248.356C215.074 248.046 214.891 247.662 214.828 247.25C214.765 246.838 214.824 246.416 214.998 246.038C215.172 245.659 215.454 245.34 215.808 245.119C216.161 244.899 216.572 244.788 216.989 244.799C217.564 244.833 218.102 245.092 218.488 245.519C218.875 245.946 219.079 246.507 219.056 247.083Z" fill="white"/>
<path d="M225.639 247.103C225.611 247.52 225.461 247.919 225.207 248.25C224.954 248.582 224.609 248.832 224.215 248.969C223.821 249.106 223.395 249.124 222.99 249.021C222.586 248.918 222.221 248.699 221.94 248.39C221.659 248.081 221.476 247.697 221.412 247.284C221.348 246.872 221.406 246.45 221.58 246.071C221.754 245.691 222.036 245.371 222.39 245.151C222.744 244.93 223.155 244.818 223.572 244.83C224.145 244.864 224.682 245.121 225.068 245.546C225.454 245.971 225.659 246.53 225.639 247.103Z" fill="white"/>
<path d="M232.233 247.134C232.205 247.549 232.057 247.945 231.806 248.276C231.555 248.607 231.213 248.857 230.821 248.996C230.43 249.135 230.007 249.156 229.604 249.058C229.2 248.959 228.835 248.745 228.552 248.441C228.269 248.137 228.081 247.758 228.011 247.348C227.941 246.939 227.992 246.518 228.158 246.138C228.324 245.757 228.598 245.434 228.945 245.207C229.293 244.98 229.7 244.86 230.115 244.861C230.697 244.882 231.247 245.134 231.644 245.56C232.041 245.986 232.253 246.552 232.233 247.134Z" fill="white"/>
<path d="M238.817 247.165C238.837 247.457 238.797 247.749 238.7 248.025C238.602 248.3 238.449 248.552 238.25 248.766C238.051 248.979 237.81 249.15 237.542 249.266C237.274 249.383 236.985 249.443 236.693 249.443C236.401 249.443 236.112 249.383 235.844 249.266C235.576 249.15 235.335 248.979 235.136 248.766C234.937 248.552 234.784 248.3 234.686 248.025C234.589 247.749 234.549 247.457 234.569 247.165C234.549 246.874 234.589 246.582 234.686 246.306C234.784 246.031 234.937 245.779 235.136 245.565C235.335 245.351 235.576 245.181 235.844 245.065C236.112 244.948 236.401 244.888 236.693 244.888C236.985 244.888 237.274 244.948 237.542 245.065C237.81 245.181 238.051 245.351 238.25 245.565C238.449 245.779 238.602 246.031 238.7 246.306C238.797 246.582 238.837 246.874 238.817 247.165Z" fill="white"/>
<path d="M245.401 247.196C245.372 247.611 245.224 248.008 244.973 248.338C244.722 248.669 244.38 248.919 243.988 249.058C243.597 249.197 243.174 249.218 242.771 249.12C242.367 249.021 242.002 248.807 241.719 248.503C241.436 248.199 241.248 247.82 241.178 247.41C241.108 247.001 241.159 246.58 241.325 246.2C241.491 245.819 241.765 245.496 242.113 245.269C242.46 245.042 242.867 244.922 243.282 244.923C243.864 244.944 244.414 245.196 244.811 245.622C245.208 246.048 245.42 246.614 245.401 247.196Z" fill="white"/>
<path d="M251.984 247.227C251.956 247.644 251.805 248.043 251.552 248.374C251.299 248.706 250.954 248.956 250.559 249.093C250.165 249.23 249.74 249.248 249.335 249.145C248.931 249.042 248.565 248.823 248.285 248.514C248.004 248.205 247.82 247.821 247.756 247.408C247.692 246.996 247.751 246.574 247.925 246.195C248.099 245.815 248.38 245.495 248.734 245.275C249.089 245.054 249.5 244.942 249.917 244.954C250.49 244.988 251.027 245.245 251.413 245.67C251.799 246.095 252.004 246.654 251.984 247.227Z" fill="white"/>
</g>
<path d="M242.631 98.0275C243.349 97.7114 243.958 97.1911 244.382 96.5313C244.807 95.8716 245.028 95.1016 245.018 94.3172C245.045 93.8072 244.968 93.2972 244.791 92.8181C244.614 92.339 244.342 91.9009 243.99 91.5305C243.639 91.1601 243.216 90.8651 242.746 90.6636C242.277 90.462 241.772 90.358 241.261 90.358C240.751 90.358 240.245 90.462 239.776 90.6636C239.307 90.8651 238.884 91.1601 238.532 91.5305C238.181 91.9009 237.908 92.339 237.732 92.8181C237.555 93.2972 237.478 93.8072 237.504 94.3172C237.489 95.1095 237.708 95.8887 238.135 96.5564C238.562 97.2241 239.177 97.7504 239.902 98.0689C234.114 98.937 234.373 105.221 234.373 105.221L248.057 105.283C248.057 105.283 248.377 98.8854 242.631 98.0275Z" fill="#4CAF4F"/>
<path opacity="0.1" d="M242.631 98.0275C243.349 97.7114 243.958 97.1911 244.382 96.5313C244.807 95.8716 245.028 95.1016 245.018 94.3172C245.045 93.8072 244.968 93.2972 244.791 92.8181C244.614 92.339 244.342 91.9009 243.99 91.5305C243.639 91.1601 243.216 90.8651 242.746 90.6636C242.277 90.462 241.772 90.358 241.261 90.358C240.751 90.358 240.245 90.462 239.776 90.6636C239.307 90.8651 238.884 91.1601 238.532 91.5305C238.181 91.9009 237.908 92.339 237.732 92.8181C237.555 93.2972 237.478 93.8072 237.504 94.3172C237.489 95.1095 237.708 95.8887 238.135 96.5564C238.562 97.2241 239.177 97.7504 239.902 98.0689C234.114 98.937 234.373 105.221 234.373 105.221L248.057 105.283C248.057 105.283 248.377 98.8854 242.631 98.0275Z" fill="black"/>
<path d="M264.866 109.336L216.095 109.115L216.068 114.944L264.84 115.165L264.866 109.336Z" fill="#4CAF4F"/>
<path opacity="0.2" d="M264.866 109.336L216.095 109.115L216.068 114.944L264.84 115.165L264.866 109.336Z" fill="white"/>
<path d="M85.5657 139.544H85.0799L83.6743 139.648C82.9137 139.693 82.1572 139.794 81.4109 139.947C80.9275 140.015 80.448 140.108 79.9743 140.226L78.3723 140.671C75.6457 141.507 73.0731 142.781 70.7552 144.443C67.6928 146.666 65.1356 149.512 63.2518 152.794C62.1446 154.686 61.2636 156.701 60.6267 158.799C59.9575 161.079 59.5721 163.432 59.4795 165.806C59.4179 167.053 59.4386 168.303 59.5415 169.548C59.5415 170.178 59.7172 170.809 59.7999 171.449C59.8694 172.095 59.9904 172.735 60.1616 173.361C61.091 177.509 62.9767 181.381 65.6683 184.671C68.36 187.96 71.783 190.574 75.6645 192.306C78.4737 193.518 81.4847 194.195 84.5425 194.301C87.7007 194.474 90.862 194.021 93.8442 192.967L94.7537 192.626H94.8777L94.9811 192.688L108.014 199.303L107.631 199.634C106.236 195.313 104.893 191.128 103.59 187.107V186.952L103.704 186.839C106.866 183.654 109.213 179.754 110.546 175.47C111.754 171.553 112.106 167.422 111.58 163.357C111.111 159.744 109.95 156.256 108.159 153.084C106.615 150.358 104.623 147.913 102.267 145.849C100.324 144.215 98.1727 142.846 95.8699 141.777C94.1275 141.025 92.3129 140.454 90.4542 140.071L88.3872 139.73L86.8886 139.617L85.9791 139.555H85.669C85.7721 139.543 85.876 139.543 85.9791 139.555H86.8989L88.3975 139.617L90.4646 139.916C92.3463 140.271 94.1857 140.822 95.9526 141.56C98.2949 142.616 100.485 143.982 102.464 145.621C104.863 147.676 106.897 150.122 108.479 152.856C110.321 156.063 111.518 159.598 112.003 163.264C112.574 167.392 112.246 171.594 111.042 175.583C109.7 179.957 107.317 183.94 104.097 187.19L104.159 186.921C105.461 190.942 106.815 195.127 108.221 199.437L108.417 200.068L107.828 199.768L94.7951 193.164H95.0224L94.0923 193.505C91.0526 194.574 87.8328 195.038 84.6148 194.869C81.4912 194.75 78.4172 194.049 75.5508 192.802C70.0831 190.46 65.5341 186.39 62.6007 181.216C61.2508 178.826 60.265 176.249 59.6758 173.568C59.5145 172.925 59.3937 172.273 59.3141 171.615C59.2314 170.964 59.0971 170.323 59.0661 169.682C58.7863 166.005 59.175 162.307 60.2133 158.768C60.866 156.642 61.7717 154.601 62.9108 152.691C64.8395 149.379 67.4499 146.515 70.5692 144.288C72.9253 142.622 75.541 141.358 78.3103 140.547L79.9329 140.133C80.4105 140.023 80.8935 139.936 81.3799 139.875C82.134 139.735 82.8975 139.653 83.664 139.627L85.0799 139.575C85.2409 139.554 85.4032 139.543 85.5657 139.544Z" fill="#4CAF4F"/>
<path d="M91.4568 163.646H89.5447L85.4106 157.838V154.024C85.4106 154.024 82.4548 153.838 82.8062 158.83C83.1576 163.822 82.8062 162.551 82.8062 162.551C82.8062 162.551 76.5327 162.551 76.0159 163.119C75.4991 163.688 75.4681 169.744 75.3958 173.124C75.3562 173.938 75.5899 174.743 76.0599 175.41C76.53 176.076 77.2093 176.567 77.9899 176.803C78.2087 176.864 78.4347 176.895 78.6617 176.896C80.2327 176.896 88.2218 175.625 88.2218 175.625H91.5188L91.4568 163.646Z" fill="#4CAF4F"/>
<path d="M96.9241 162.623L95.7459 175.687H92.48V162.892L96.9241 162.623Z" fill="#4CAF4F"/>
<path d="M135.878 428.58V419.744L120.034 419.63L119.899 432.993L120.881 433.066C125.253 433.345 143.123 433.758 146.058 432.849C149.324 431.836 135.878 428.58 135.878 428.58Z" fill="#4CAF4F"/>
<path d="M146.43 432.022C146.43 432.167 140.498 432.291 133.191 432.291C125.884 432.291 119.951 432.167 119.951 432.022C119.951 431.877 125.884 431.753 133.191 431.753C140.498 431.753 146.43 431.877 146.43 432.022Z" fill="#263238"/>
<path d="M136.157 430.389C136.022 430.317 136.157 429.852 136.477 429.355C136.798 428.859 137.232 428.653 137.335 428.756C137.438 428.859 137.221 429.252 136.911 429.676C136.601 430.1 136.291 430.461 136.157 430.389Z" fill="#263238"/>
<path d="M137.17 430.968C137.025 430.968 137.097 430.389 137.407 429.841C137.717 429.293 138.131 428.963 138.244 429.045C138.358 429.128 138.172 429.593 137.883 430.079C137.593 430.565 137.304 431.019 137.17 430.968Z" fill="#263238"/>
<path d="M124.726 431.981C124.664 431.981 124.426 431.795 124.085 431.402C123.669 430.897 123.205 430.433 122.7 430.017C122.204 429.62 121.612 429.36 120.985 429.262C120.499 429.2 120.189 429.262 120.158 429.2C120.127 429.138 120.427 428.921 120.995 428.88C121.745 428.864 122.477 429.113 123.062 429.583C123.61 430.03 124.072 430.572 124.426 431.185C124.664 431.639 124.788 431.939 124.726 431.981Z" fill="#263238"/>
<path d="M136.208 428.725C136.281 428.849 136.012 429.159 135.557 429.324C135.103 429.49 134.7 429.428 134.679 429.324C134.658 429.221 134.979 429.004 135.371 428.859C135.764 428.715 136.126 428.601 136.208 428.725Z" fill="#263238"/>
<path d="M135.96 427.867C135.96 428.022 135.547 428.146 135.01 428.157C134.472 428.167 134.048 428.043 134.059 427.898C134.069 427.754 134.493 427.619 135.01 427.609C135.526 427.598 135.94 427.723 135.96 427.867Z" fill="#263238"/>
<path d="M174.893 428.58V419.744L159.049 419.63L158.915 432.859L159.897 432.931C164.269 433.211 182.149 433.758 185.074 432.849C188.34 431.836 174.893 428.58 174.893 428.58Z" fill="#4CAF4F"/>
<path d="M185.446 432.043C185.446 432.187 179.524 432.311 172.206 432.311C164.889 432.311 158.977 432.187 158.977 432.043C158.977 431.898 164.899 431.774 172.206 431.774C179.513 431.774 185.446 431.898 185.446 432.043Z" fill="#263238"/>
<path d="M175.172 430.389C175.048 430.317 175.172 429.852 175.493 429.355C175.813 428.859 176.247 428.653 176.351 428.756C176.454 428.859 176.237 429.252 175.927 429.676C175.617 430.1 175.307 430.461 175.172 430.389Z" fill="#263238"/>
<path d="M176.185 430.968C176.051 430.968 176.113 430.389 176.433 429.841C176.754 429.293 177.157 428.963 177.27 429.045C177.384 429.128 177.188 429.593 176.898 430.079C176.609 430.565 176.33 431.019 176.185 430.968Z" fill="#263238"/>
<path d="M163.742 431.981C163.68 431.981 163.452 431.795 163.101 431.402C162.684 430.897 162.221 430.433 161.716 430.017C161.219 429.62 160.628 429.36 160 429.262C159.525 429.2 159.204 429.262 159.173 429.2C159.142 429.138 159.442 428.921 160.011 428.88C160.761 428.864 161.493 429.113 162.078 429.583C162.629 430.027 163.091 430.57 163.442 431.185C163.68 431.639 163.804 431.939 163.742 431.981Z" fill="#263238"/>
<path d="M175.224 428.725C175.296 428.849 175.028 429.159 174.573 429.324C174.118 429.49 173.715 429.428 173.694 429.324C173.674 429.221 173.994 429.004 174.387 428.859C174.78 428.715 175.141 428.601 175.224 428.725Z" fill="#263238"/>
<path d="M174.997 427.867C174.997 428.022 174.583 428.146 174.046 428.157C173.508 428.167 173.095 428.043 173.105 427.898C173.116 427.754 173.529 427.619 174.046 427.609C174.563 427.598 174.997 427.723 174.997 427.867Z" fill="#263238"/>
<path d="M233.267 166.168C232.854 165.744 231.83 165.951 231.83 165.951C231.933 165.356 231.933 164.748 231.83 164.153C231.644 163.574 230.342 163.687 230.342 163.687C230.282 163.2 230.282 162.707 230.342 162.22C230.352 162.112 230.329 162.003 230.276 161.909C230.222 161.815 230.14 161.739 230.042 161.693C229.426 161.442 228.764 161.322 228.099 161.341C227.303 160.773 230.528 156.256 231.727 154.809C232.926 153.363 232.709 152.236 231.644 152.236C230.91 152.236 227.148 156.577 225.991 158.034C224.833 159.491 221.764 163.543 221.66 160.308C221.557 157.073 220.255 154.634 219.438 154.22C218.622 153.807 217.754 154.778 218.198 155.678C218.589 156.699 218.832 157.771 218.922 158.861C219.034 159.729 218.995 160.61 218.808 161.465C218.465 163.057 217.999 164.619 217.413 166.137H217.33C217.33 166.137 194.778 187.769 193.145 189.309C191.688 190.694 162.377 187.665 156.497 187.045C154.498 186.753 152.48 186.615 150.461 186.632C147.908 186.745 147.453 187.107 144.911 187.138C138.49 187.209 132.084 187.773 125.749 188.823C122.881 189.311 120.201 190.577 118.003 192.483C115.805 194.389 114.173 196.863 113.285 199.634C107.363 218.134 93.9475 261.924 91.5808 286.522C89.7923 289.765 88.1777 293.101 86.7439 296.516C85.0799 301.043 85.483 301.198 86.0411 301.302C87.55 301.581 89.2657 293.457 89.9065 295.421C90.5472 297.384 86.6509 305.105 88.2322 305.332C90.2992 305.622 91.9425 297.064 92.1389 296.382C92.3353 295.7 93.3584 295.917 93.1724 296.558C92.8727 297.467 89.9685 307.11 91.9942 307.42C93.1104 307.585 93.2344 305.549 93.2344 305.549C93.2344 305.549 95.3015 296.32 96.242 296.506C97.1825 296.692 96.18 302.139 95.7045 303.958C95.2291 305.777 95.8906 306.697 96.8621 306.252C97.5235 305.942 99.1049 300.413 99.5389 298.614C99.973 296.816 101.058 291.834 102.515 294.718C103.973 297.602 106.185 299.276 107.094 299.317C107.299 299.294 107.492 299.209 107.649 299.075C107.805 298.94 107.918 298.762 107.972 298.563C108.027 298.364 108.021 298.154 107.954 297.958C107.888 297.763 107.765 297.592 107.6 297.467C106.818 296.703 106.147 295.834 105.606 294.883C105.124 294.143 104.774 293.325 104.572 292.465C104.156 290.75 103.913 288.998 103.849 287.235L103.683 286.202C105.998 274.74 112.665 241.099 122.287 219.612L126.235 227.735L127.951 233.75L117.429 259.723L162.305 259.134L155.608 233.358L163.742 206.486C172.537 206.682 195.119 207.013 198.881 205.308C203.615 203.241 228.099 172.317 228.099 172.317C229.695 171.077 231.224 169.752 232.678 168.349C232.678 168.349 234.166 167.098 233.267 166.168Z" fill="#FFBE9D"/>
<path d="M115.455 240.53C116.757 236.086 123.444 214.113 123.444 214.113C123.444 214.113 126.731 232.024 125.863 234.184C125.064 236.034 124.121 237.817 123.041 239.517C115.455 251.062 116.447 256.839 116.447 256.839L162.284 255.444C162.388 249.036 158.595 234.133 157.809 231.756C157.024 229.378 159.639 221.596 159.639 221.596C159.639 221.596 164.806 216.335 164.62 213.628C164.522 211.195 164.221 208.775 163.721 206.393L191.626 207.426L190.748 188.513L150.667 184.503C149.272 188.44 136.653 186.508 136.653 186.508C123.031 186.963 122.184 189.464 116.52 193.867C110.856 198.269 101.482 236.055 101.482 236.055L115.455 240.53Z" fill="#4CAF4F"/>
<path d="M142.554 236.055C141.76 236.197 140.951 236.239 140.146 236.179C138.648 236.179 136.591 236.076 134.327 235.848C132.064 235.621 130.018 235.301 128.56 235.011C127.757 234.908 126.969 234.706 126.214 234.412C127.022 234.412 127.829 234.488 128.622 234.639C130.09 234.825 132.126 235.084 134.379 235.311C136.632 235.538 138.679 235.693 140.157 235.797C140.962 235.807 141.765 235.893 142.554 236.055Z" fill="#263238"/>
<path d="M145.696 232.159C144.902 232.548 144.061 232.836 143.195 233.016C139.072 234.1 134.818 234.604 130.555 234.515C129.673 234.544 128.791 234.46 127.93 234.267C128.8 234.157 129.678 234.112 130.555 234.133C132.178 234.081 134.41 233.967 136.87 233.678C139.33 233.389 141.521 232.975 143.071 232.644C143.932 232.414 144.81 232.252 145.696 232.159Z" fill="#263238"/>
<path d="M161.116 214.775C161.096 215.563 160.988 216.346 160.796 217.11C160.527 218.547 160.114 220.511 159.587 222.661C159.06 224.81 158.553 226.795 158.099 228.138C157.916 228.907 157.645 229.653 157.292 230.36C157.35 229.575 157.496 228.798 157.726 228.045C158.119 226.433 158.564 224.573 159.06 222.536C159.556 220.5 160.031 218.64 160.424 217.028C160.564 216.252 160.796 215.495 161.116 214.775Z" fill="#263238"/>
<path d="M115.941 237.895C113.55 237.525 111.19 236.976 108.882 236.251C106.523 235.7 104.209 234.974 101.957 234.081C104.347 234.456 106.707 235.005 109.016 235.724C111.376 236.274 113.69 236.999 115.941 237.895Z" fill="#263238"/>
<path d="M164.217 206.165C163.827 206.233 163.429 206.233 163.039 206.165C161.959 206.055 160.899 205.801 159.887 205.411C158.196 204.776 156.657 203.794 155.368 202.528C154.079 201.263 153.07 199.742 152.404 198.063C151.668 196.216 151.354 194.228 151.484 192.244C151.53 190.607 152.019 189.014 152.9 187.634C153.519 186.705 154.444 186.021 155.515 185.702C155.801 185.623 156.097 185.584 156.393 185.588C156.6 185.588 156.703 185.588 156.703 185.588C156.703 185.588 156.269 185.588 155.577 185.867C154.595 186.23 153.762 186.91 153.21 187.8C151.804 190.011 151.412 194.053 152.91 197.825C153.608 199.604 154.7 201.201 156.104 202.496C157.254 203.557 158.58 204.41 160.021 205.018C161.373 205.553 162.781 205.937 164.217 206.165Z" fill="#263238"/>
<path d="M188.309 207.054C188.05 203.885 187.967 200.704 188.06 197.525C187.98 194.349 188.076 191.171 188.35 188.006C188.609 191.172 188.691 194.35 188.598 197.525C188.685 200.704 188.588 203.886 188.309 207.054Z" fill="#263238"/>
<path d="M150.399 185.66C150.512 183.356 150.75 180.751 150.75 180.751C150.75 180.751 156.455 180.121 156.796 174.23C157.137 168.338 156.796 154.748 156.796 154.748L146.461 149.456L134.989 158.479L136.756 187.934L147.278 188.606C148.082 188.628 148.862 188.331 149.447 187.778C150.032 187.226 150.374 186.464 150.399 185.66Z" fill="#FFBE9D"/>
<path d="M151.422 169.568C151.422 169.568 151.422 169.682 151.329 169.816C151.252 169.914 151.153 169.991 151.039 170.041C150.926 170.092 150.802 170.114 150.678 170.106C150.016 170.106 149.376 169.341 149.148 168.452C149.04 168.021 149.04 167.57 149.148 167.139C149.169 166.951 149.237 166.772 149.346 166.616C149.454 166.461 149.599 166.335 149.768 166.251C149.907 166.193 150.063 166.193 150.202 166.251C150.305 166.302 150.389 166.385 150.44 166.488C150.512 166.664 150.44 166.778 150.44 166.767C150.44 166.757 150.44 166.664 150.337 166.561C150.283 166.487 150.203 166.435 150.114 166.416C150.024 166.397 149.93 166.412 149.851 166.457C149.724 166.534 149.619 166.641 149.545 166.77C149.471 166.898 149.43 167.043 149.427 167.191C149.34 167.576 149.34 167.975 149.427 168.359C149.634 169.165 150.192 169.816 150.688 169.878C150.785 169.891 150.884 169.885 150.978 169.858C151.072 169.831 151.16 169.785 151.236 169.723C151.36 169.641 151.401 169.558 151.422 169.568Z" fill="#EB996E"/>
<path d="M160.341 151.564C159.546 148.856 156.662 147.513 154.037 146.769C150.037 145.632 145.717 145.136 141.81 146.572C137.903 148.009 133.211 150.531 133.211 154.841C130.906 154.654 129.584 156.67 128.674 159.171C128.093 160.695 127.744 162.298 127.641 163.925C127.351 169.568 125.77 177.361 122.111 181.495C120.044 183.8 117.181 185.392 116.003 188.265C114.969 190.756 115.507 193.711 114.546 196.233C113.688 198.455 111.797 200.037 110.412 201.969C109.001 204.162 108.17 206.677 107.999 209.279C107.827 211.88 108.319 214.483 109.43 216.842C110.548 219.14 112.123 221.187 114.058 222.857C115.993 224.527 118.248 225.786 120.685 226.557C125.513 228.026 130.661 228.076 135.516 226.702C139.16 225.83 142.559 224.145 145.459 221.772C148.425 219.349 150.463 215.975 151.226 212.222C151.959 208.005 150.781 203.716 149.903 199.52C147.154 186.26 147.939 185.567 151.412 173.258C151.494 173.041 151.536 172.814 151.598 172.597C151.66 172.379 151.691 172.276 151.732 172.111C151.831 171.624 151.883 171.129 151.887 170.633C151.38 170.821 150.829 170.861 150.3 170.748C149.771 170.634 149.285 170.372 148.9 169.992C148.514 169.587 148.245 169.085 148.121 168.539C147.997 167.993 148.024 167.424 148.197 166.891C148.441 166.309 148.805 165.785 149.264 165.353C149.723 164.92 150.268 164.589 150.864 164.38C152.011 163.905 153.241 163.657 154.368 163.129C156.755 161.993 158.409 159.636 159.535 157.166C160.461 155.454 160.747 153.468 160.341 151.564Z" fill="#263238"/>
<path d="M151.835 169.847C152.054 170.17 152.234 170.517 152.373 170.881C152.683 171.532 153.096 172.452 153.551 173.516L153.634 173.713H153.417L152.383 173.806C151.67 173.806 151.071 173.94 150.368 173.93C150.307 173.916 150.25 173.887 150.203 173.845C150.156 173.804 150.12 173.751 150.099 173.692C150.068 173.598 150.068 173.497 150.099 173.403C150.123 173.263 150.154 173.125 150.192 172.989L150.378 172.255C150.472 171.766 150.617 171.288 150.812 170.829C150.793 171.328 150.72 171.824 150.595 172.307L150.45 173.041C150.399 173.289 150.306 173.671 150.45 173.64C150.967 173.64 151.701 173.527 152.383 173.485L153.417 173.392L153.282 173.62C152.838 172.586 152.466 171.615 152.249 170.943C152.058 170.6 151.919 170.231 151.835 169.847Z" fill="#4CAF4F"/>
<path d="M116.447 256.839L162.284 255.444L182.231 333.31L178.562 422.627H154.326L157.292 335.212L139.567 281.003L142.296 426.09L117.801 426.451L115.228 290.077C115.114 286.284 113.874 277.737 114.339 273.975L116.447 256.839Z" fill="#263238"/>
<path d="M145.665 282.109C144.915 282.156 144.162 282.111 143.422 281.975C142.038 281.809 140.146 281.52 138.069 281.106C135.991 280.693 134.131 280.218 132.787 279.835C132.069 279.677 131.374 279.427 130.72 279.091C130.72 278.936 134.09 279.742 138.224 280.579C142.358 281.417 145.686 281.954 145.665 282.109Z" fill="#455A64"/>
<path d="M178.314 417.728C178.314 417.873 172.826 417.997 166.057 417.997C159.287 417.997 153.789 417.873 153.789 417.728C153.789 417.584 159.277 417.46 166.057 417.46C172.837 417.46 178.314 417.573 178.314 417.728Z" fill="#455A64"/>
<path d="M142.079 422.317C142.079 422.472 136.746 422.586 130.173 422.586C123.599 422.586 118.277 422.472 118.277 422.317C118.277 422.162 123.61 422.048 130.173 422.048C136.736 422.048 142.079 422.172 142.079 422.317Z" fill="#455A64"/>
<path d="M138.916 421.945C138.772 421.945 138.131 390.247 137.48 351.149C136.829 312.05 136.446 280.331 136.581 280.331C136.715 280.331 137.376 312.019 138.017 351.138C138.658 390.257 139.071 421.945 138.916 421.945Z" fill="#455A64"/>
<path d="M175.059 417.728C175.047 417.587 175.047 417.446 175.059 417.305V416.064C175.059 414.948 175.141 413.346 175.203 411.31C175.348 407.176 175.555 401.171 175.813 393.812C176.371 379.012 177.157 358.611 178.015 336.09C178.015 335.873 178.015 335.666 178.015 335.48V335.553C172.589 313.849 167.679 294.15 164.114 279.897L159.98 263.04C159.504 261.066 159.142 259.526 158.884 258.452C158.76 257.945 158.677 257.552 158.605 257.253C158.565 257.118 158.54 256.979 158.533 256.839C158.586 256.969 158.628 257.104 158.657 257.242C158.739 257.532 158.843 257.924 158.987 258.421C159.266 259.454 159.669 261.025 160.186 262.989C161.22 266.978 162.677 272.725 164.496 279.804C168.093 294.046 173.054 313.694 178.552 335.429V335.501C178.552 335.687 178.552 335.904 178.552 336.111C177.632 358.631 176.795 379.023 176.185 393.823C175.865 401.192 175.596 407.155 175.41 411.31C175.307 413.377 175.224 414.948 175.172 416.064C175.172 416.591 175.11 417.005 175.1 417.305C175.102 417.447 175.088 417.589 175.059 417.728Z" fill="#455A64"/>
<path d="M167.152 333.661C165.411 334.234 163.618 334.632 161.799 334.85C159.566 335.232 157.664 335.501 156.807 335.542V335.336C157.086 335.418 157.23 335.47 157.23 335.511C157.23 335.553 157.055 335.511 156.765 335.511H156.145L156.765 335.325C157.571 335.088 159.473 334.695 161.706 334.292C163.496 333.903 165.32 333.692 167.152 333.661Z" fill="#455A64"/>
<path d="M166.728 336.627C165.116 336.701 163.501 336.629 161.902 336.41C160.288 336.377 158.679 336.201 157.096 335.883C160.326 335.62 163.577 335.871 166.728 336.627Z" fill="#455A64"/>
<path opacity="0.2" d="M116.251 258.483C116.794 259.18 117.478 259.754 118.258 260.169C119.038 260.584 119.896 260.83 120.778 260.891C122.624 261.109 124.491 261.075 126.328 260.787C138.162 259.475 150.698 258.265 162.284 255.444C147.288 256.281 131.444 256.002 116.447 256.839L116.292 258.121" fill="black"/>
<g opacity="0.2">
<path d="M131.702 279.618L140.157 312.422L139.567 281.003L131.702 279.618Z" fill="black"/>
</g>
</svg>
